<?xml version="1.0" encoding="UTF-8"?>
<svg version="1.1" viewBox="0 0 2048 2048" width="512" height="512" xmlns="http://www.w3.org/2000/svg">
<path transform="translate(193,11)" d="m0 0h22l20 2 22 5 20 7 23 11 21 14 14 12 79 79 6 5 6 7 8 7 152 152 6 5v2l4 2 170 170 6 5 5 6 8 7 173 173 6 5v2l4 2v2l4 2v2l4 2v2l4 2v2l4 2 38 38 4-1 680-680 14-11 10-7 13-8 19-9 24-8 18-4 20-2h23l20 2 19 4 21 7 16 7 17 10 17 12 12 11 9 8 9 11 8 10 13 21 10 22 6 19 4 19 2 15v34l-4 25-6 22-10 23-10 18-12 16-11 12-677 677 6 7 144 144 6 5 5 6 8 7 173 173 6 5 4 4v2l4 2v2l4 2v2l4 2v2l4 2v2l4 2 106 106 6 5 5 5v2l4 2 165 165 2 1v2h2v2l4 2 20 20v2h2l7 8 7 7 10 13 10 15 8 15 8 20 7 25 2 6h1v65l-2 1-5 21-7 20-11 23-12 18-9 11-9 10-9 9-15 11-15 9-16 8-18 7-24 6-21 3h-37l-25-2-24-5-21-7-18-8-18-11-16-12-15-14-678-678-5 2-6 7h-2l-2 4-7 6-5 6-662 662h-2v2l-17 13-13 8-21 11-16 6-23 6-20 3-17 1h-28l-23-2-20-4-24-8-23-11-14-9-13-10-16-16-10-13-11-18-8-16-7-19-7-27-1-4v-55l8-31 7-19 12-23 8-12 11-14 12-13 688-688-2-4-690-690-13-17-11-19-9-20-6-19-4-19-2-19v-23l3-24 5-21 8-21 8-16 8-14 13-17 11-12 10-10 14-11 15-10 21-11 25-9 22-5z"/>
<path transform="translate(2047,1812)" d="m0 0"/>
</svg>
